<?xml version="1.0" encoding="UTF-8"?>
<!DOCTYPE svg PUBLIC "-//W3C//DTD SVG 1.1//EN" "http://www.w3.org/Graphics/SVG/1.1/DTD/svg11.dtd">
<!-- Creator: Cirych -->
<svg xmlns="http://www.w3.org/2000/svg" xml:space="preserve" width="100%" height="100%" version="1.1" style="shape-rendering:geometricPrecision; text-rendering:geometricPrecision; image-rendering:optimizeQuality; fill-rule:evenodd; clip-rule:evenodd"
viewBox="0 0 1058 1501"
 xmlns:xlink="http://www.w3.org/1999/xlink">
 <defs>
  <style type="text/css">
   <![CDATA[
    .str0 {stroke:black;stroke-width:84.66;stroke-linecap:round;stroke-linejoin:round}
    .str6 {stroke:black;stroke-width:8.46;stroke-linecap:round;stroke-linejoin:round}
    .str3 {stroke:black;stroke-width:42.33;stroke-linecap:round;stroke-linejoin:round}
    .str4 {stroke:black;stroke-width:42.33;stroke-linecap:round;stroke-linejoin:round}
    .str2 {stroke:#471504;stroke-width:42.33;stroke-linecap:round;stroke-linejoin:round}
    .str5 {stroke:black;stroke-width:50.79;stroke-linecap:round;stroke-linejoin:round}
    .str1 {stroke:#471504;stroke-width:50.79;stroke-linecap:round;stroke-linejoin:round}
    .fil1 {fill:none}
    .fil3 {fill:black}
    .fil0 {fill:black;fill-rule:nonzero}
    .fil2 {fill:#471504;fill-rule:nonzero}
	@media screen and (min-width: 100px) {
		#beard_small {display:none;}
	}
	@media screen and (max-width: 100px) {
		#beard_full {display:none;}
	}
   ]]>
  </style>
 </defs>

  <g id="Cirych_brown">
   <g id="beard_small">
    <g>
     <path id="Ellipse" class="fil0" d="M991 623c0,-38 15,-68 33,-68 19,0 34,30 34,68l-67 0zm-462 617l0 -136 0 0 25 0 24 -2 24 -4 23 -4 23 -6 23 -7 22 -9 21 -9 21 -10 20 -12 20 -13 19 -13 19 -15 17 -15 17 -16 16 -17 15 -18 14 -18 14 -19 12 -19 12 -20 11 -21 9 -21 9 -21 7 -21 7 -21 5 -22 5 -21 3 -22 3 -21 1 -22 1 -22 67 0 0 34 -3 34 -4 33 -5 33 -6 31 -8 31 -9 30 -11 29 -11 27 -12 27 -13 26 -15 24 -15 24 -16 22 -17 22 -17 20 -19 20 -19 18 -20 18 -20 16 -21 15 -22 14 -22 12 -23 12 -24 10 -24 9 -24 8 -25 6 -26 5 -25 4 -26 2 -27 1 0 0zm-529 -617l68 0 0 22 2 22 2 21 4 22 4 21 6 22 6 21 8 21 8 21 10 21 10 21 12 20 12 19 14 19 14 18 15 18 16 17 17 16 18 15 18 15 19 13 20 13 20 12 21 10 22 9 22 9 22 7 23 6 24 4 23 4 25 2 24 0 0 136 -26 -1 -26 -2 -26 -4 -25 -5 -25 -6 -25 -8 -24 -9 -23 -10 -23 -12 -23 -12 -21 -14 -22 -15 -20 -16 -20 -18 -19 -18 -18 -20 -18 -20 -17 -22 -16 -22 -15 -24 -14 -24 -14 -26 -12 -27 -11 -27 -10 -29 -9 -30 -8 -31 -7 -31 -5 -33 -4 -33 -2 -34 -1 -34zm0 0c0,-38 15,-68 34,-68 19,0 34,30 34,68l-68 0z"/>
    </g>
    <path class="fil1 str0" d="M796 1110c0,-103 -122,-187 -273,-187 -150,0 -273,84 -273,187"/>
   </g>
   <g id="beard_full">
    <g>
     <path class="fil2" d="M11 667c-2,-23 6,-45 17,-49 12,-3 22,12 24,35l-41 14zm365 412l2 85 -1 0 -3 0 -5 0 -6 0 -7 -1 -9 0 -9 -2 -11 -2 -12 -2 -13 -3 -13 -4 -15 -6 -15 -6 -15 -7 -15 -9 -16 -10 -16 -12 -17 -13 -16 -15 -16 -17 -16 -19 -15 -21 -15 -23 -14 -25 -14 -29 -12 -30 -12 -33 -11 -36 -9 -39 -8 -42 -6 -44 -5 -47 41 -14 5 41 5 37 7 35 8 33 8 30 10 27 11 26 11 24 12 21 13 20 13 18 14 17 14 14 14 14 15 11 14 11 15 9 14 8 14 7 13 5 13 5 13 4 12 3 11 2 10 2 9 1 8 1 6 0 6 0 3 0 3 0 0 0zm0 0c12,-1 22,18 22,41 1,23 -9,43 -20,44l-2 -85z"/>
    </g>
    <line class="fil1 str1" x1="377" y1="1121" x2="472" y2= "1216" />
    <line class="fil1 str2" x1="316" y1="1372" x2="472" y2= "1216" />
    <line class="fil1 str1" x1="664" y1="1121" x2="569" y2= "1216" />
    <g>
     <path class="fil2" d="M989 653c2,-23 13,-38 24,-35 12,4 19,26 17,49l-41 -14zm-326 511l2 -85 0 0 3 0 3 0 6 0 6 0 8 -1 9 -1 10 -2 11 -2 12 -3 13 -4 13 -5 13 -5 14 -7 15 -8 14 -9 14 -11 15 -11 14 -14 14 -14 14 -17 13 -18 13 -20 12 -21 11 -24 11 -26 10 -27 8 -30 8 -33 7 -35 6 -37 4 -41 41 14 -4 47 -7 44 -8 42 -9 39 -11 36 -11 33 -13 30 -14 28 -14 26 -15 23 -15 21 -16 19 -16 17 -16 15 -16 13 -17 12 -15 10 -16 9 -15 7 -15 6 -14 6 -14 4 -13 3 -12 2 -11 2 -9 2 -9 0 -7 1 -6 0 -5 0 -2 0 -2 0zm0 0c-11,-1 -21,-21 -20,-44 0,-23 10,-42 22,-41l-2 85z"/>
    </g>
    <line class="fil1 str2" x1="424" y1="1480" x2="316" y2= "1372" />
    <line class="fil1 str2" x1="569" y1="1216" x2="725" y2= "1372" />
    <line class="fil1 str3" x1="438" y1="1372" x2="330" y2= "1480" />
    <line class="fil1 str2" x1="725" y1="1372" x2="617" y2= "1480" />
    <line class="fil1 str4" x1="282" y1="1216" x2="438" y2= "1372" />
    <line class="fil1 str5" x1="282" y1="1216" x2="377" y2= "1121" />
    <line class="fil1 str3" x1="603" y1="1372" x2="759" y2= "1216" />
    <line class="fil1 str3" x1="711" y1="1480" x2="603" y2= "1372" />
    <line class="fil1 str5" x1="759" y1="1216" x2="664" y2= "1121" />
    <path class="fil1 str0" d="M664 1121c0,-54 -64,-98 -143,-98 -80,0 -144,44 -144,98"/>
   </g>
   <polyline class="fil1 str3" points="477,462 276,393 215,438 "/>
   <polyline class="fil1 str3" points="564,462 765,393 826,438 "/>
   <circle class="fil3" cx="480" cy="817" r="20"/>
   <circle class="fil3" cx="561" cy="817" r="20"/>
   <polygon class="fil3" points="346,593 422,553 497,513 346,513 195,513 271,553 "/>
   <polygon class="fil3" points="695,593 771,553 846,513 695,513 544,513 620,553 "/>
   <path class="fil1 str6" d="M995 364c0,-199 -210,-360 -469,-360 -260,0 -470,161 -470,360"/>
  </g>

</svg>
