<?xml version="1.0" encoding="UTF-8"?>
<!DOCTYPE svg PUBLIC "-//W3C//DTD SVG 1.1//EN" "http://www.w3.org/Graphics/SVG/1.1/DTD/svg11.dtd">
<!-- Creator: CorelDRAW X7 -->
<svg xmlns="http://www.w3.org/2000/svg" xml:space="preserve" width="100%" height="100%" version="1.1" style="shape-rendering:geometricPrecision; text-rendering:geometricPrecision; image-rendering:optimizeQuality; fill-rule:evenodd; clip-rule:evenodd"
viewBox="0 0 1149 1121"
 xmlns:xlink="http://www.w3.org/1999/xlink">
 <defs>
  <style type="text/css">
   <![CDATA[
    .fil0 {fill:#FEFEFE}
   ]]>
  </style>
 </defs>
 <g id="Layer_x0020_1">
  <metadata id="CorelCorpID_0Corel-Layer"/>
  <path class="fil0" d="M575 0c-318,0 -575,257 -575,575 0,254 165,469 393,545 29,5 39,-13 39,-28 0,-13 0,-50 -1,-97 -159,34 -193,-78 -193,-78 -26,-66 -64,-84 -64,-84 -52,-35 4,-35 4,-35 58,5 88,60 88,60 51,88 135,62 167,47 6,-37 20,-62 37,-76 -128,-15 -262,-64 -262,-284 0,-63 22,-114 59,-155 -6,-14 -25,-73 6,-152 0,0 48,-15 158,59 46,-13 95,-19 144,-19 49,0 98,6 144,19 109,-74 157,-59 157,-59 32,79 12,138 6,152 37,41 59,92 59,155 0,220 -134,269 -262,283 20,18 39,53 39,107 0,76 -1,138 -1,157 0,16 11,34 40,28 228,-76 392,-291 392,-545 0,-318 -257,-575 -574,-575z"/>
 </g>
</svg>
